<svg width="248" height="157" viewBox="0 0 248 157" fill="none" xmlns="http://www.w3.org/2000/svg">
<path d="M23.995 5.7504C22.6984 5.90293 21.4019 5.94106 20.1054 5.8648C18.8088 5.78853 17.5123 5.71226 16.2158 5.63599C14.9192 5.48346 13.6608 5.36906 12.4406 5.2928C11.2966 5.21653 10.2288 5.25466 9.23736 5.40719C9.08482 6.85626 8.97042 8.49599 8.89416 10.3264C8.89416 12.1568 8.89416 14.0635 8.89416 16.0464C8.89416 18.0293 8.93229 20.0123 9.00856 21.9952C9.08482 23.9019 9.12296 25.6941 9.12296 27.372C7.90269 27.372 6.60616 27.372 5.23336 27.372C3.93682 27.372 2.52589 27.3339 1.00056 27.2576L0.657356 41.2144C2.25896 41.2144 3.70802 41.2144 5.00456 41.2144C6.37736 41.2144 7.67389 41.1763 8.89416 41.1C8.81789 46.6675 8.85602 52.0824 9.00856 57.3448C9.16109 62.5309 9.73309 68.0603 10.7246 73.9328C11.716 76.2971 13.3176 78.1656 15.5294 79.5384C17.8174 80.9112 20.4104 81.9408 23.3086 82.6272C26.2067 83.3136 29.2955 83.7712 32.575 84C35.8544 84.1525 39.0195 84.1525 42.0702 84C42.4515 82.856 42.6803 81.5976 42.7566 80.2248C42.9091 78.852 42.9472 77.4792 42.871 76.1064C42.7947 74.7336 42.6803 73.3989 42.5278 72.1024C42.3752 70.8059 42.2227 69.6237 42.0702 68.556C40.7736 68.6323 39.2483 68.6323 37.4942 68.556C35.8163 68.4797 34.1384 68.2891 32.4606 67.984C30.7827 67.6027 29.2192 67.1069 27.7702 66.4968C26.3211 65.8867 25.2152 65.0477 24.4526 63.98C24.3763 60.548 24.3382 56.8872 24.3382 52.9976C24.3382 49.0317 24.3382 44.9896 24.3382 40.8712H42.0702C41.9176 39.8797 41.8795 38.6976 41.9558 37.3248C42.1083 35.8757 42.2227 34.4648 42.299 33.092C42.3752 31.7192 42.3752 30.4608 42.299 29.3168C42.2227 28.0965 41.9176 27.1813 41.3838 26.5712C37.4942 26.8 34.2147 26.9907 31.5454 27.1432C28.9523 27.2957 26.4736 27.4101 24.1094 27.4864C24.1094 26.3424 24.0712 25.2365 23.995 24.1688C23.995 23.1011 23.995 22.0715 23.995 21.08V5.7504ZM91.802 62.0352C90.9631 61.8064 89.8953 61.692 88.5988 61.692C87.3023 61.6157 85.9295 61.6157 84.4804 61.692C83.0313 61.7683 81.6585 61.8445 80.362 61.9208C79.0655 61.9208 78.0359 61.8827 77.2732 61.8064C77.0444 62.7979 76.7012 63.9419 76.2436 65.2384C75.8623 66.4587 75.2903 67.3357 74.5276 67.8696C73.6124 68.4797 72.3921 68.8992 70.8668 69.128C69.3415 69.2805 67.8543 69.2043 66.4052 68.8992C64.9561 68.5179 63.6977 67.8315 62.63 66.84C61.6385 65.8485 61.2191 64.4757 61.3716 62.7216C61.5241 60.0523 61.6004 57.4973 61.6004 55.0568C61.6004 52.6163 61.7529 50.2139 62.058 47.8496C62.2868 46.6293 62.63 45.8667 63.0876 45.5616C64.0791 44.3413 65.3756 43.5024 66.9772 43.0448C69.9516 42.2821 72.354 42.6635 74.1844 44.1888C76.0148 45.6379 77.1207 47.6971 77.502 50.3664C78.4935 50.5189 79.5993 50.6715 80.8196 50.824C82.1161 50.9765 83.4127 51.0909 84.7092 51.1672C86.082 51.2435 87.3785 51.2816 88.5988 51.2816C89.8953 51.2816 91.0393 51.1672 92.0308 50.9384C91.9545 48.4216 91.8783 46.0955 91.802 43.96C91.802 41.7483 91.6495 39.7653 91.3444 38.0112C91.0393 36.2571 90.5817 34.7317 89.9716 33.4352C89.4377 32.1387 88.6369 31.1091 87.5692 30.3464C85.9676 28.8211 84.0609 27.6771 81.8492 26.9144C79.6375 26.1517 77.3113 25.6941 74.8708 25.5416C73.2692 25.3891 71.7439 25.3891 70.2948 25.5416C68.922 25.6179 67.4729 25.5797 65.9476 25.4272C64.1172 25.4272 62.2868 25.5416 60.4564 25.7704C58.7023 25.9992 57.0244 26.4187 55.4228 27.0288C53.8975 27.5627 52.5247 28.2491 51.3044 29.088C50.1604 29.9269 49.3215 30.9184 48.7876 32.0624C48.5588 32.8251 48.2156 33.9309 47.758 35.38C47.3004 36.8291 47.0335 37.9731 46.9572 38.812C46.4996 41.5576 46.2708 44.3032 46.2708 47.0488C46.5759 49.5656 46.6521 52.3493 46.4996 55.4C46.4233 58.4507 46.4615 61.5013 46.614 64.552C46.7665 67.5264 47.2241 70.3864 47.9868 73.132C48.7495 75.8776 50.1604 78.1656 52.2196 79.996C54.8889 82.6653 58.1684 84.3432 62.058 85.0296C64.1935 85.0296 66.5577 85.1059 69.1508 85.2584C71.7439 85.4872 74.2607 85.4872 76.7012 85.2584C79.1417 85.1059 81.3916 84.6483 83.4508 83.8856C85.5863 83.1229 87.3023 81.8264 88.5988 79.996C89.1327 79.4621 89.5521 78.6232 89.8572 77.4792C90.2385 76.2589 90.5436 74.848 90.7724 73.2464C91.0012 71.5685 91.1919 69.7763 91.3444 67.8696C91.4969 65.9629 91.6495 64.0181 91.802 62.0352ZM113.353 32.9776C113.353 32.6725 113.353 31.7192 113.353 30.1176C113.353 28.516 113.353 26.6093 113.353 24.3976C113.353 22.1859 113.353 19.8216 113.353 17.3048C113.353 14.7117 113.353 12.3093 113.353 10.0976C113.353 7.80959 113.353 5.86479 113.353 4.2632C113.353 2.58533 113.315 1.55573 113.239 1.17439C113.239 0.945593 112.934 0.831192 112.323 0.831192C111.713 0.754927 111.027 0.754927 110.264 0.831192C109.502 0.907463 108.739 1.02186 107.976 1.17439C107.214 1.25066 106.68 1.28879 106.375 1.28879C105.459 1.36506 104.697 1.44133 104.087 1.5176C103.476 1.5176 102.904 1.5176 102.371 1.5176C101.837 1.5176 101.265 1.5176 100.655 1.5176C100.044 1.44133 99.2818 1.36506 98.3666 1.28879C98.2903 4.64453 98.214 8.6104 98.1378 13.1864C98.1378 17.6861 98.1378 22.4909 98.1378 27.6008C98.1378 32.7107 98.1378 37.9731 98.1378 43.388C98.1378 48.7267 98.1378 53.9128 98.1378 58.9464C98.214 63.98 98.2522 68.7085 98.2522 73.132C98.3284 77.4792 98.3666 81.2163 98.3666 84.3432C100.197 84.1907 101.722 84.1525 102.943 84.2288C104.163 84.3051 105.269 84.3432 106.26 84.3432C107.252 84.4195 108.205 84.4195 109.12 84.3432C110.112 84.2669 111.256 84.0381 112.552 83.6568V83.1992C112.857 80.6824 113.01 78.1656 113.01 75.6488C113.01 73.132 112.934 70.6152 112.781 68.0984C112.705 65.5053 112.628 62.9504 112.552 60.4336C112.476 57.8405 112.514 55.2093 112.667 52.54C112.819 50.4808 113.353 48.9555 114.268 47.964C115.183 46.8963 116.213 46.2099 117.357 45.9048C118.501 45.5235 119.645 45.4472 120.789 45.676C122.009 45.8285 122.924 46.0573 123.535 46.3624C123.611 46.4387 123.687 46.4768 123.763 46.4768C123.84 46.4768 123.916 46.5149 123.992 46.5912C124.602 47.0488 125.06 47.6971 125.365 48.536C125.746 49.3749 126.013 50.3283 126.166 51.396C126.395 52.4637 126.547 53.5696 126.623 54.7136C126.7 55.7813 126.776 56.7728 126.852 57.688C127.005 59.7472 127.081 61.9589 127.081 64.3232C127.157 66.6875 127.157 69.0517 127.081 71.416C127.081 73.7803 127.081 76.0683 127.081 78.28C127.081 80.4917 127.157 82.4747 127.31 84.2288C129.979 84.2288 132.343 84.2288 134.403 84.2288C136.538 84.3051 138.94 84.1525 141.61 83.7712C141.457 81.1781 141.419 78.1656 141.495 74.7336C141.572 71.3016 141.648 67.7552 141.724 64.0944C141.8 60.3573 141.839 56.6965 141.839 53.112C141.915 49.4512 141.877 46.0955 141.724 43.0448C141.648 39.9941 141.381 37.4011 140.923 35.2656C140.542 33.0539 139.97 31.6048 139.207 30.9184C137.606 29.5456 135.814 28.5923 133.831 28.0584C131.848 27.5245 129.788 27.2957 127.653 27.372C125.594 27.4483 123.573 27.8296 121.59 28.516C119.607 29.2024 117.815 30.1176 116.213 31.2616C115.832 31.5667 115.336 31.8717 114.726 32.1768C114.192 32.4819 113.734 32.7488 113.353 32.9776ZM195.749 27.0288C193.308 26.8763 191.135 26.7619 189.228 26.6856C187.397 26.6093 185.834 26.5331 184.537 26.4568C184.309 26.4568 183.889 26.4568 183.279 26.4568C182.669 26.4568 182.059 26.4568 181.449 26.4568C180.839 26.3805 180.267 26.3805 179.733 26.4568C179.275 26.4568 179.046 26.4949 179.046 26.5712C179.046 27.4864 178.932 28.4016 178.703 29.3168C178.551 30.1557 178.512 31.1853 178.589 32.4056C178.055 31.1091 177.407 30.1176 176.644 29.4312C175.881 28.6685 175.004 28.1347 174.013 27.8296C173.021 27.4483 171.915 27.2576 170.695 27.2576C169.551 27.1813 168.293 27.1432 166.92 27.1432C164.251 27.2195 161.734 27.944 159.369 29.3168C157.005 30.6133 154.946 32.4437 153.192 34.808C151.514 37.096 150.179 39.8416 149.188 43.0448C148.196 46.248 147.701 49.7563 147.701 53.5696C147.701 56.6203 148.006 59.9379 148.616 63.5224C149.302 67.1069 150.332 70.4245 151.705 73.4752C153.077 76.5259 154.793 79.0808 156.853 81.14C158.988 83.1992 161.543 84.2288 164.517 84.2288C167.187 84.2288 169.894 83.5805 172.64 82.284C175.462 80.9875 177.788 79.424 179.618 77.5936C179.618 78.3563 179.542 79.0045 179.389 79.5384C179.237 80.0723 179.161 80.7587 179.161 81.5976C179.161 82.2077 179.237 82.7416 179.389 83.1992C179.618 83.6568 180 83.9619 180.533 84.1144C181.372 84.1144 182.173 84.0763 182.936 84C183.775 83.8475 184.614 83.7712 185.453 83.7712C186.673 83.7712 187.893 83.8475 189.113 84C190.41 84.0763 191.668 84.1144 192.889 84.1144H194.261C195.177 83.9619 195.634 83.3899 195.634 82.3984C195.711 81.4069 195.749 80.4155 195.749 79.424C196.283 71.2635 196.397 63.2173 196.092 55.2856C195.787 47.2776 195.749 39.1552 195.977 30.9184V29.7744C195.977 29.3168 195.939 28.8592 195.863 28.4016C195.863 27.944 195.825 27.4864 195.749 27.0288ZM162.458 49.7944C162.84 47.8877 163.907 46.2099 165.661 44.7608C167.492 43.2355 169.971 42.4728 173.097 42.4728C174.699 42.4728 175.881 42.5872 176.644 42.816C177.483 43.0448 178.055 43.5787 178.36 44.4176C178.741 45.2565 178.932 46.4768 178.932 48.0784C179.008 49.6037 179.046 51.7011 179.046 54.3704C179.046 56.5059 179.008 58.4507 178.932 60.2048C178.932 61.8827 178.703 63.3317 178.245 64.552C177.864 65.696 177.178 66.6112 176.186 67.2976C175.271 67.9077 173.86 68.2128 171.953 68.2128C168.75 68.2128 166.233 67.0307 164.403 64.6664C162.649 62.2259 161.772 59.2896 161.772 55.8576C161.772 54.8661 161.81 53.8747 161.886 52.8832C161.963 51.8155 162.153 50.7859 162.458 49.7944ZM232.081 77.8224C232.157 78.8901 232.157 79.8435 232.081 80.6824C232.081 81.5213 232.157 82.5891 232.309 83.8856C232.309 84.1144 232.614 84.2288 233.225 84.2288C233.835 84.3051 234.521 84.3051 235.284 84.2288C236.046 84.1525 236.809 84.0763 237.572 84C238.334 83.8475 238.868 83.7712 239.173 83.7712C240.089 83.6949 240.851 83.6568 241.461 83.6568C242.071 83.5805 242.643 83.5424 243.177 83.5424C243.711 83.5424 244.283 83.5805 244.893 83.6568C245.503 83.6568 246.266 83.6949 247.181 83.7712C247.486 73.704 247.525 63.98 247.296 54.5992C247.143 45.2184 247.067 35.8376 247.067 26.4568C245.237 26.6093 243.711 26.6475 242.491 26.5712C241.271 26.4949 240.165 26.4568 239.173 26.4568C238.182 26.3805 237.19 26.3805 236.199 26.4568C235.284 26.5331 234.178 26.7619 232.881 27.1432V27.6008C232.5 30.1176 232.309 32.6344 232.309 35.1512C232.386 37.668 232.462 40.2229 232.538 42.816C232.691 45.3328 232.805 47.8877 232.881 50.4808C232.958 53.0739 232.919 55.6669 232.767 58.26C232.614 60.3192 232.081 61.8827 231.165 62.9504C230.25 63.9419 229.221 64.6283 228.077 65.0096C226.933 65.3147 225.75 65.3909 224.53 65.2384C223.386 65.0096 222.509 64.7427 221.899 64.4376C221.823 64.3613 221.746 64.3232 221.67 64.3232C221.594 64.3232 221.518 64.2851 221.441 64.2088C220.831 63.7512 220.335 63.1029 219.954 62.264C219.649 61.4251 219.382 60.4717 219.153 59.404C219.001 58.3363 218.886 57.2685 218.81 56.2008C218.734 55.0568 218.658 54.0272 218.581 53.112C218.429 51.0528 218.314 48.8411 218.238 46.4768C218.238 44.1125 218.238 41.7483 218.238 39.384C218.314 37.0197 218.353 34.7317 218.353 32.52C218.353 30.3083 218.276 28.3253 218.124 26.5712C215.454 26.5712 213.052 26.5712 210.917 26.5712C208.857 26.4949 206.493 26.6475 203.824 27.0288C203.976 29.6219 204.014 32.6344 203.938 36.0664C203.862 39.4984 203.786 43.0829 203.709 46.82C203.633 50.4808 203.557 54.1416 203.481 57.8024C203.481 61.3869 203.519 64.7045 203.595 67.7552C203.747 70.8059 204.014 73.4371 204.396 75.6488C204.853 77.7843 205.463 79.1952 206.226 79.8816C207.828 81.2544 209.62 82.2077 211.603 82.7416C213.586 83.2755 215.607 83.5043 217.666 83.428C219.802 83.3517 221.861 82.9704 223.844 82.284C225.827 81.5976 227.619 80.6824 229.221 79.5384C229.602 79.2333 230.059 78.9283 230.593 78.6232C231.203 78.3181 231.699 78.0512 232.081 77.8224Z" fill="#F54B2A"/>
<path d="M11.1564 155.518C11.2034 154.579 11.2268 153.851 11.2268 153.335C11.2738 152.866 11.2972 152.42 11.2972 151.997C11.3442 151.622 11.3676 151.199 11.3676 150.73C11.4146 150.308 11.438 149.674 11.438 148.829C11.438 148.031 11.438 146.952 11.438 145.591C11.438 144.229 11.4146 142.446 11.3676 140.24C11.4615 140.662 11.9778 141.038 12.9165 141.366C13.8552 141.695 15.0052 141.906 16.3663 142C17.7275 142.141 19.159 142.141 20.661 142C22.2099 141.906 23.6179 141.625 24.8852 141.155C25.9178 140.78 26.7861 140.146 27.4902 139.254C28.2411 138.316 28.8278 137.213 29.2503 135.945C29.7196 134.631 30.0482 133.199 30.2359 131.651C30.4706 130.102 30.5879 128.506 30.5879 126.863C30.4941 124.516 30.3298 122.193 30.0951 119.893C29.8604 117.593 29.3441 115.528 28.5462 113.698C27.7952 111.82 26.6453 110.295 25.0964 109.121C23.5475 107.901 21.4354 107.197 18.7601 107.009C17.4459 106.821 16.202 106.939 15.0286 107.361C13.8552 107.737 12.9165 108.628 12.2125 110.037C12.0717 110.318 11.9309 110.412 11.7901 110.318C11.6962 110.177 11.6023 109.99 11.5084 109.755C11.5084 109.239 11.485 108.84 11.438 108.558C11.438 108.276 11.438 107.901 11.438 107.432C11.438 107.197 11.4146 107.033 11.3676 106.939C9.95956 106.751 8.3872 106.704 6.65057 106.798C4.91394 106.845 3.31811 106.868 1.8631 106.868C1.76922 110.248 1.72229 113.768 1.72229 117.429C1.76922 121.043 1.81616 124.751 1.8631 128.553C1.95697 132.308 2.05084 136.133 2.14471 140.029C2.23858 143.924 2.28552 147.82 2.28552 151.716V156.362C3.0365 156.503 3.92828 156.574 4.96087 156.574C5.99347 156.621 6.95565 156.621 7.84744 156.574C8.78616 156.574 9.5606 156.527 10.1708 156.433C10.8279 156.386 11.1564 156.339 11.1564 156.292V155.518ZM22.0691 128.975C21.8344 130.618 21.1303 131.862 19.9569 132.707C18.8305 133.552 17.305 133.974 15.3807 133.974C14.395 133.974 13.5971 133.904 12.9869 133.763C12.4237 133.575 12.0013 133.199 11.7197 132.636C11.438 132.073 11.2503 131.275 11.1564 130.243C11.1095 129.163 11.086 127.708 11.086 125.877C11.086 124.422 11.1095 123.061 11.1564 121.794C11.2503 120.527 11.4615 119.447 11.7901 118.555C12.1656 117.664 12.6818 116.96 13.339 116.443C13.9961 115.927 14.9348 115.669 16.1551 115.669C17.1408 115.669 18.0326 115.927 18.8305 116.443C19.6284 116.96 20.3089 117.664 20.8722 118.555C21.4354 119.4 21.8578 120.386 22.1395 121.512C22.4211 122.592 22.5619 123.718 22.5619 124.892C22.5619 125.549 22.5384 126.229 22.4915 126.934C22.4445 127.638 22.3037 128.318 22.0691 128.975ZM44.237 109.262C44.237 108.934 44.2135 108.699 44.1666 108.558C44.1666 108.417 44.1666 108.3 44.1666 108.206C44.1666 108.065 44.1666 107.901 44.1666 107.713C44.1666 107.525 44.1666 107.244 44.1666 106.868C44.1666 106.775 43.9553 106.728 43.5329 106.728C43.1574 106.681 42.6881 106.681 42.1248 106.728C41.6085 106.775 41.0922 106.821 40.576 106.868C40.1066 106.915 39.778 106.939 39.5903 106.939C39.0271 106.986 38.5577 107.033 38.1822 107.08C37.8067 107.08 37.4547 107.08 37.1262 107.08C36.7976 107.08 36.4456 107.08 36.0701 107.08C35.6946 107.033 35.2252 106.986 34.662 106.939C34.4743 113.134 34.4273 119.119 34.5212 124.892C34.662 130.665 34.7324 136.438 34.7324 142.211C35.8589 142.117 36.8211 142.094 37.619 142.141C38.4638 142.188 39.2383 142.211 39.9423 142.211C40.6464 142.258 41.3269 142.258 41.984 142.211C42.6411 142.164 43.3686 142.023 44.1666 141.789V141.507C44.1666 139.771 44.1431 138.151 44.0962 136.649C44.0962 135.1 44.0962 133.598 44.0962 132.143C44.0962 130.641 44.0727 129.163 44.0258 127.708C43.9788 126.253 43.9319 124.704 43.8849 123.061C43.838 121.747 44.0258 120.738 44.4482 120.034C44.8706 119.33 45.4573 118.814 46.2083 118.485C47.0062 118.157 47.9214 117.992 48.954 117.992C50.0336 117.992 51.207 118.063 52.4742 118.203C52.5212 118.203 52.8263 118.25 53.3895 118.344C53.9997 118.438 54.5864 118.555 55.1496 118.696C55.3843 118.79 55.6189 118.884 55.8536 118.978C56.1352 119.025 56.3934 119.095 56.6281 119.189L57.2617 119.4C57.2148 118.696 57.1913 117.945 57.1913 117.147C57.1913 116.349 57.1913 115.481 57.1913 114.542C57.1913 113.557 57.1913 112.454 57.1913 111.233C57.2382 110.013 57.2617 108.605 57.2617 107.009C57.2617 106.962 56.9097 106.939 56.2056 106.939C55.5485 106.892 54.7272 106.892 53.7415 106.939C52.7558 106.986 51.6998 107.103 50.5733 107.291C49.4469 107.432 48.4377 107.643 47.546 107.924C46.8888 108.159 46.2083 108.417 45.5042 108.699C44.8471 108.981 44.4247 109.168 44.237 109.262ZM61.1455 109.896C61.0047 110.412 60.7935 111.116 60.5118 112.008C60.2302 112.853 60.0659 113.533 60.019 114.05C59.8782 114.941 59.7843 115.81 59.7374 116.655C59.6905 117.452 59.667 118.274 59.667 119.119C59.8078 120.668 59.8313 122.381 59.7374 124.258C59.6905 126.136 59.7139 128.013 59.8078 129.891C59.9017 131.721 60.1833 133.481 60.6526 135.171C61.122 136.861 61.9903 138.269 63.2576 139.395C64.9004 141.038 66.9186 142.07 69.3123 142.493C70.6266 142.493 72.0816 142.54 73.6774 142.634C75.2732 142.774 76.8221 142.774 78.3241 142.634C79.826 142.54 81.2106 142.258 82.4779 141.789C83.7921 141.319 84.8482 140.522 85.6461 139.395C86.1154 138.926 86.4675 138.057 86.7021 136.79C86.9838 135.523 87.195 134.091 87.3358 132.495C87.5235 130.9 87.6409 129.233 87.6878 127.497C87.7817 125.76 87.8521 124.211 87.899 122.85C87.8521 121.301 87.8051 119.799 87.7582 118.344C87.7113 116.842 87.5939 115.481 87.4062 114.261C87.2184 112.994 86.9368 111.891 86.5613 110.952C86.1858 110.013 85.6695 109.333 85.0124 108.91C84.0268 107.971 82.8534 107.267 81.4922 106.798C80.1311 106.282 78.6995 105.977 77.1976 105.883C76.2119 105.789 75.2732 105.789 74.3814 105.883C73.5366 105.93 72.6448 105.906 71.7061 105.812C70.5796 105.812 69.4531 105.883 68.3267 106.024C67.2472 106.164 66.2146 106.423 65.2289 106.798C64.2902 107.127 63.4453 107.549 62.6944 108.065C61.9903 108.582 61.474 109.192 61.1455 109.896ZM69.946 118.203C70.5561 117.452 71.3541 116.936 72.3397 116.655C74.1702 116.232 75.6487 116.396 76.7752 117.147C77.9016 117.898 78.5822 119.095 78.8169 120.738C79.0985 122.099 79.1689 123.554 79.0281 125.103C78.9342 126.605 78.7934 128.107 78.6057 129.609C78.3241 130.782 77.7843 131.557 76.9864 131.932C76.3762 132.261 75.6018 132.495 74.663 132.636C73.7243 132.73 72.8091 132.683 71.9173 132.495C71.0724 132.261 70.3449 131.862 69.7348 131.299C69.1246 130.688 68.843 129.844 68.8899 128.764C68.9838 127.121 69.0307 125.572 69.0307 124.117C69.0307 122.615 69.1246 121.113 69.3123 119.612C69.4531 118.861 69.6644 118.391 69.946 118.203ZM101.293 92.506C101.293 92.459 100.964 92.4121 100.307 92.3652C99.697 92.2713 98.9225 92.2244 97.9838 92.2244C97.092 92.1774 96.1299 92.1774 95.0973 92.2244C94.0647 92.2244 93.1729 92.2948 92.4219 92.4356V97.0822C92.4219 100.978 92.375 104.874 92.2811 108.769C92.1872 112.665 92.0934 116.514 91.9995 120.316C91.9526 124.07 91.9056 127.778 91.8587 131.439C91.8587 135.053 91.9056 138.55 91.9995 141.93C93.4545 141.93 95.0503 141.953 96.787 142C98.5236 142.094 100.096 142.047 101.504 141.859C101.551 141.765 101.574 141.601 101.574 141.366C101.574 140.897 101.574 140.522 101.574 140.24C101.621 139.958 101.645 139.559 101.645 139.043C101.739 138.808 101.833 138.644 101.926 138.55C102.067 138.409 102.208 138.48 102.349 138.761C103.053 140.169 103.992 141.085 105.165 141.507C106.338 141.883 107.582 141.977 108.896 141.789C111.572 141.601 113.684 140.92 115.233 139.747C116.782 138.527 117.932 137.001 118.683 135.171C119.481 133.293 119.997 131.205 120.231 128.905C120.466 126.605 120.63 124.282 120.724 121.935C120.724 120.292 120.607 118.696 120.372 117.147C120.185 115.598 119.856 114.19 119.387 112.923C118.964 111.609 118.378 110.506 117.627 109.614C116.923 108.675 116.054 108.018 115.022 107.643C113.754 107.173 112.346 106.892 110.797 106.798C109.295 106.657 107.864 106.657 106.503 106.798C105.142 106.892 103.992 107.103 103.053 107.432C102.114 107.76 101.598 108.136 101.504 108.558C101.551 106.352 101.574 104.569 101.574 103.207C101.574 101.846 101.574 100.767 101.574 99.9688C101.574 99.124 101.551 98.4903 101.504 98.0679C101.504 97.5985 101.481 97.1761 101.434 96.8006C101.434 96.3782 101.41 95.9323 101.363 95.4629C101.363 94.9466 101.34 94.2191 101.293 93.2804V92.506ZM112.205 119.823C112.44 120.48 112.581 121.16 112.628 121.864C112.675 122.568 112.698 123.249 112.698 123.906C112.698 125.08 112.557 126.23 112.276 127.356C111.994 128.435 111.572 129.421 111.009 130.313C110.445 131.158 109.765 131.838 108.967 132.355C108.169 132.871 107.277 133.129 106.292 133.129C105.071 133.129 104.132 132.871 103.475 132.355C102.818 131.838 102.302 131.134 101.926 130.243C101.598 129.351 101.387 128.295 101.293 127.074C101.246 125.807 101.222 124.422 101.222 122.921C101.222 121.09 101.246 119.658 101.293 118.626C101.387 117.546 101.574 116.725 101.856 116.162C102.138 115.598 102.56 115.246 103.123 115.106C103.733 114.918 104.531 114.824 105.517 114.824C107.441 114.824 108.967 115.246 110.093 116.091C111.267 116.936 111.971 118.18 112.205 119.823ZM124.939 90.8163C124.517 95.0875 124.306 99.3586 124.306 103.63C124.353 107.901 124.446 112.172 124.587 116.443C124.728 120.715 124.822 124.986 124.869 129.257C124.963 133.528 124.845 137.776 124.517 142C124.845 141.906 125.502 141.883 126.488 141.93C127.474 141.977 128.506 142 129.586 142C130.712 142.047 131.745 142.047 132.684 142C133.622 142 134.209 141.859 134.444 141.578C134.35 139.7 134.279 137.424 134.233 134.748C134.186 132.026 134.162 129.116 134.162 126.018C134.162 122.921 134.162 119.705 134.162 116.373C134.209 113.04 134.256 109.825 134.303 106.728C134.35 103.63 134.397 100.72 134.444 97.9975C134.491 95.2752 134.514 92.9519 134.514 91.0275L124.939 90.8163ZM147.684 124.329C148.153 124.422 148.904 124.493 149.936 124.54C150.969 124.587 152.119 124.61 153.386 124.61C154.7 124.61 156.062 124.587 157.47 124.54C158.878 124.493 160.192 124.422 161.412 124.329C162.68 124.235 163.759 124.141 164.651 124.047C165.59 123.953 166.223 123.859 166.552 123.765C166.693 121.794 166.693 119.846 166.552 117.922C166.411 115.997 165.989 114.237 165.285 112.642C164.627 111.046 163.642 109.685 162.328 108.558C161.013 107.432 159.277 106.681 157.118 106.305C155.428 105.883 153.691 105.695 151.908 105.742C150.124 105.789 148.435 106.07 146.839 106.587C145.243 107.056 143.811 107.784 142.544 108.769C141.277 109.708 140.338 110.858 139.728 112.219C139.165 113.768 138.789 115.364 138.601 117.007C138.461 118.602 138.32 120.269 138.179 122.005C138.085 123.93 138.132 125.854 138.32 127.778C138.508 129.703 138.86 131.533 139.376 133.27C139.892 134.96 140.573 136.532 141.418 137.987C142.262 139.395 143.319 140.545 144.586 141.437C145.712 142.094 146.933 142.516 148.247 142.704C149.561 142.704 150.993 142.751 152.541 142.845C154.137 142.939 155.686 142.939 157.188 142.845C158.69 142.751 160.075 142.469 161.342 142C162.609 141.531 163.642 140.733 164.44 139.606C164.768 139.325 165.026 138.832 165.214 138.128C165.449 137.377 165.637 136.508 165.777 135.523C165.918 134.49 166.036 133.387 166.129 132.214C166.223 131.04 166.317 129.844 166.411 128.623C165.895 128.482 165.238 128.412 164.44 128.412C163.642 128.365 162.797 128.365 161.905 128.412C161.06 128.459 160.239 128.506 159.441 128.553C158.643 128.553 158.009 128.529 157.54 128.482C157.634 130.407 157.329 131.862 156.625 132.847C155.968 133.786 155.146 134.349 154.161 134.537C153.175 134.725 152.166 134.561 151.133 134.044C150.101 133.528 149.303 132.73 148.74 131.651C148.223 130.806 147.918 129.937 147.824 129.046C147.777 128.154 147.73 127.004 147.684 125.596V124.329ZM156.202 113.416C157.047 113.838 157.704 114.472 158.174 115.317C158.69 116.162 158.948 117.054 158.948 117.992C158.948 118.368 158.948 118.626 158.948 118.767C158.948 118.861 158.807 118.931 158.526 118.978C158.291 118.978 157.869 118.954 157.259 118.907C156.648 118.861 155.733 118.837 154.513 118.837C152.729 118.837 151.368 118.861 150.429 118.907C149.538 118.907 148.88 118.884 148.458 118.837C148.036 118.743 147.801 118.602 147.754 118.415C147.754 118.18 147.801 117.804 147.895 117.288C147.989 116.678 148.129 116.091 148.317 115.528C148.552 114.965 148.88 114.472 149.303 114.05C149.725 113.627 150.289 113.299 150.993 113.064C151.697 112.829 152.612 112.712 153.738 112.712C154.255 112.712 154.7 112.782 155.076 112.923C155.451 113.017 155.827 113.181 156.202 113.416ZM179.811 110.6C179.765 109.943 179.741 109.356 179.741 108.84C179.788 108.323 179.765 107.666 179.671 106.868C179.671 106.728 179.483 106.657 179.107 106.657C178.732 106.61 178.309 106.61 177.84 106.657C177.371 106.704 176.901 106.775 176.432 106.868C175.963 106.915 175.634 106.939 175.446 106.939C174.883 106.986 174.414 107.033 174.038 107.08C173.663 107.08 173.311 107.08 172.982 107.08C172.654 107.08 172.302 107.08 171.926 107.08C171.551 107.033 171.081 106.986 170.518 106.939C170.33 113.134 170.283 119.119 170.377 124.892C170.518 130.665 170.589 136.438 170.589 142.211C171.715 142.117 172.654 142.094 173.405 142.141C174.156 142.188 174.836 142.211 175.446 142.211C176.057 142.258 176.643 142.258 177.206 142.211C177.817 142.164 178.521 142.023 179.319 141.789V141.507C179.506 139.958 179.6 138.409 179.6 136.861C179.6 135.312 179.553 133.763 179.459 132.214C179.412 130.618 179.366 129.046 179.319 127.497C179.272 125.901 179.295 124.282 179.389 122.639C179.483 121.372 179.811 120.433 180.375 119.823C180.938 119.166 181.572 118.743 182.276 118.555C182.98 118.321 183.684 118.274 184.388 118.415C185.139 118.509 185.702 118.649 186.077 118.837C186.124 118.884 186.171 118.907 186.218 118.907C186.265 118.907 186.312 118.931 186.359 118.978C186.735 119.26 187.016 119.658 187.204 120.175C187.439 120.691 187.603 121.278 187.697 121.935C187.837 122.592 187.931 123.273 187.978 123.977C188.025 124.634 188.072 125.244 188.119 125.807C188.213 127.074 188.26 128.435 188.26 129.891C188.307 131.346 188.307 132.801 188.26 134.256C188.26 135.711 188.26 137.119 188.26 138.48C188.26 139.841 188.307 141.061 188.401 142.141C190.043 142.141 191.499 142.141 192.766 142.141C194.08 142.188 195.558 142.094 197.201 141.859C197.107 140.451 197.06 138.832 197.06 137.001C197.107 135.124 197.154 133.199 197.201 131.228C197.248 129.21 197.295 127.192 197.342 125.173C197.389 123.108 197.389 121.16 197.342 119.33C197.764 119.001 198.21 118.767 198.68 118.626C199.196 118.438 199.689 118.344 200.158 118.344C200.674 118.344 201.144 118.391 201.566 118.485C201.989 118.579 202.341 118.696 202.622 118.837C202.669 118.884 202.716 118.907 202.763 118.907C202.81 118.907 202.857 118.931 202.904 118.978C203.279 119.26 203.561 119.658 203.749 120.175C203.983 120.691 204.148 121.278 204.242 121.935C204.382 122.592 204.476 123.273 204.523 123.977C204.57 124.634 204.617 125.244 204.664 125.807C204.758 127.074 204.805 128.435 204.805 129.891C204.852 131.346 204.852 132.801 204.805 134.256C204.805 135.711 204.805 137.119 204.805 138.48C204.805 139.841 204.852 141.061 204.946 142.141C206.588 142.141 208.043 142.141 209.311 142.141C210.625 142.188 212.103 142.094 213.746 141.859C213.652 140.263 213.629 138.409 213.676 136.297C213.723 134.185 213.77 132.003 213.817 129.75C213.864 127.45 213.887 125.197 213.887 122.991C213.934 120.738 213.91 118.673 213.817 116.795C213.77 114.918 213.605 113.322 213.324 112.008C213.089 110.647 212.737 109.755 212.268 109.333C211.282 108.488 210.179 107.901 208.959 107.572C207.738 107.244 206.471 107.103 205.157 107.15C203.89 107.197 202.646 107.432 201.425 107.854C200.205 108.276 199.102 108.84 198.116 109.544C197.882 109.731 197.6 109.919 197.272 110.107C196.943 110.248 196.661 110.389 196.427 110.529C196.192 109.966 195.957 109.567 195.723 109.333C194.737 108.488 193.634 107.901 192.414 107.572C191.193 107.244 189.926 107.103 188.612 107.15C187.345 107.197 186.101 107.432 184.881 107.854C183.66 108.276 182.557 108.84 181.572 109.544C181.337 109.731 181.032 109.919 180.656 110.107C180.328 110.295 180.046 110.459 179.811 110.6ZM247.019 106.939C245.517 106.845 244.179 106.775 243.006 106.728C241.879 106.681 240.917 106.634 240.119 106.587C239.978 106.587 239.72 106.587 239.345 106.587C238.969 106.587 238.594 106.587 238.218 106.587C237.843 106.54 237.491 106.54 237.162 106.587C236.88 106.587 236.74 106.61 236.74 106.657C236.74 107.22 236.669 107.784 236.528 108.347C236.435 108.863 236.411 109.497 236.458 110.248C236.13 109.45 235.731 108.84 235.261 108.417C234.792 107.948 234.252 107.619 233.642 107.432C233.032 107.197 232.351 107.08 231.6 107.08C230.896 107.033 230.122 107.009 229.277 107.009C227.634 107.056 226.085 107.502 224.63 108.347C223.175 109.145 221.908 110.271 220.828 111.726C219.796 113.134 218.974 114.824 218.364 116.795C217.754 118.767 217.449 120.926 217.449 123.273C217.449 125.15 217.637 127.192 218.012 129.398C218.435 131.604 219.068 133.645 219.913 135.523C220.758 137.4 221.814 138.973 223.081 140.24C224.396 141.507 225.968 142.141 227.798 142.141C229.441 142.141 231.107 141.742 232.797 140.944C234.534 140.146 235.965 139.184 237.092 138.057C237.092 138.527 237.045 138.926 236.951 139.254C236.857 139.583 236.81 140.005 236.81 140.522C236.81 140.897 236.857 141.226 236.951 141.507C237.092 141.789 237.326 141.977 237.655 142.07C238.171 142.07 238.664 142.047 239.133 142C239.65 141.906 240.166 141.859 240.682 141.859C241.433 141.859 242.184 141.906 242.935 142C243.733 142.047 244.508 142.07 245.259 142.07H246.103C246.667 141.977 246.948 141.625 246.948 141.014C246.995 140.404 247.019 139.794 247.019 139.184C247.347 134.162 247.418 129.21 247.23 124.329C247.042 119.4 247.019 114.402 247.159 109.333V108.628C247.159 108.347 247.136 108.065 247.089 107.784C247.089 107.502 247.066 107.22 247.019 106.939ZM226.531 120.949C226.766 119.776 227.423 118.743 228.502 117.851C229.629 116.913 231.154 116.443 233.079 116.443C234.064 116.443 234.792 116.514 235.261 116.655C235.778 116.795 236.13 117.124 236.317 117.64C236.552 118.157 236.669 118.907 236.669 119.893C236.716 120.832 236.74 122.123 236.74 123.765C236.74 125.08 236.716 126.276 236.669 127.356C236.669 128.389 236.528 129.28 236.247 130.031C236.012 130.735 235.59 131.299 234.98 131.721C234.416 132.097 233.548 132.284 232.375 132.284C230.403 132.284 228.854 131.557 227.728 130.102C226.648 128.6 226.109 126.793 226.109 124.681C226.109 124.07 226.132 123.46 226.179 122.85C226.226 122.193 226.343 121.559 226.531 120.949Z" fill="#F7B12E"/>
</svg>
