<svg width="211" height="36" viewBox="0 0 211 36" fill="none" xmlns="http://www.w3.org/2000/svg">
<path d="M7.89695 2.37668C7.48068 2.42565 7.0644 2.4379 6.64813 2.41341C6.23186 2.38892 5.81558 2.36444 5.39931 2.33995C4.98304 2.29098 4.57901 2.25425 4.18722 2.22976C3.81992 2.20527 3.47711 2.21752 3.15878 2.26649C3.10981 2.73174 3.07308 3.2582 3.04859 3.84588C3.04859 4.43356 3.04859 5.04573 3.04859 5.68238C3.04859 6.31903 3.06083 6.95569 3.08532 7.59234C3.10981 8.20451 3.12205 8.77994 3.12205 9.31865C2.73026 9.31865 2.31399 9.31865 1.87323 9.31865C1.45696 9.31865 1.00395 9.30641 0.51422 9.28192L0.40403 13.763C0.91825 13.763 1.3835 13.763 1.79977 13.763C2.24053 13.763 2.6568 13.7507 3.04859 13.7262C3.0241 15.5138 3.03635 17.2523 3.08532 18.9419C3.13429 20.607 3.31794 22.3823 3.63627 24.2678C3.9546 25.0268 4.46882 25.6268 5.17893 26.0675C5.91353 26.5083 6.74608 26.8389 7.67657 27.0592C8.60706 27.2796 9.59877 27.4265 10.6517 27.5C11.7046 27.549 12.7208 27.549 13.7003 27.5C13.8227 27.1327 13.8962 26.7287 13.9207 26.2879C13.9696 25.8471 13.9819 25.4064 13.9574 24.9656C13.9329 24.5249 13.8962 24.0964 13.8472 23.6801C13.7982 23.2638 13.7493 22.8843 13.7003 22.5414C13.284 22.5659 12.7943 22.5659 12.2311 22.5414C11.6924 22.517 11.1537 22.4557 10.615 22.3578C10.0763 22.2354 9.57429 22.0762 9.10904 21.8803C8.64379 21.6844 8.28874 21.4151 8.04387 21.0722C8.01938 19.9703 8.00714 18.795 8.00714 17.5462C8.00714 16.2729 8.00714 14.9751 8.00714 13.6528H13.7003C13.6513 13.3345 13.6391 12.9549 13.6636 12.5142C13.7125 12.0489 13.7493 11.5959 13.7738 11.1551C13.7982 10.7144 13.7982 10.3104 13.7738 9.94306C13.7493 9.55127 13.6513 9.25743 13.4799 9.06154C12.2311 9.135 11.1782 9.19622 10.3211 9.24519C9.48858 9.29416 8.69277 9.33089 7.93368 9.35538C7.93368 8.98808 7.92144 8.63302 7.89695 8.29021C7.89695 7.9474 7.89695 7.61683 7.89695 7.2985V2.37668ZM29.6675 20.4478C29.3982 20.3744 29.0553 20.3376 28.6391 20.3376C28.2228 20.3132 27.782 20.3132 27.3168 20.3376C26.8515 20.3621 26.4108 20.3866 25.9945 20.4111C25.5782 20.4111 25.2477 20.3989 25.0028 20.3744C24.9293 20.6927 24.8192 21.06 24.6722 21.4763C24.5498 21.8681 24.3661 22.1497 24.1213 22.3211C23.8274 22.517 23.4357 22.6516 22.9459 22.7251C22.4562 22.7741 21.9787 22.7496 21.5135 22.6516C21.0482 22.5292 20.6442 22.3088 20.3014 21.9905C19.983 21.6722 19.8484 21.2314 19.8973 20.6682C19.9463 19.8112 19.9708 18.9909 19.9708 18.2073C19.9708 17.4237 20.0198 16.6524 20.1177 15.8933C20.1912 15.5015 20.3014 15.2567 20.4483 15.1587C20.7666 14.7669 21.1829 14.4976 21.6971 14.3507C22.6521 14.1058 23.4234 14.2282 24.0111 14.718C24.5988 15.1832 24.9538 15.8443 25.0763 16.7014C25.3946 16.7504 25.7496 16.7993 26.1414 16.8483C26.5577 16.8973 26.974 16.934 27.3903 16.9585C27.831 16.983 28.2473 16.9952 28.6391 16.9952C29.0553 16.9952 29.4226 16.9585 29.741 16.885C29.7165 16.077 29.692 15.3301 29.6675 14.6445C29.6675 13.9344 29.6185 13.2977 29.5206 12.7345C29.4226 12.1713 29.2757 11.6816 29.0798 11.2653C28.9084 10.8491 28.6513 10.5185 28.3085 10.2736C27.7943 9.7839 27.1821 9.4166 26.472 9.17173C25.7619 8.92686 25.015 8.77994 24.2315 8.73097C23.7172 8.682 23.2275 8.682 22.7623 8.73097C22.3215 8.75546 21.8563 8.74321 21.3665 8.69424C20.7788 8.69424 20.1912 8.73097 19.6035 8.80443C19.0403 8.87789 18.5016 9.01257 17.9874 9.20846C17.4976 9.37987 17.0569 9.60025 16.6651 9.8696C16.2978 10.139 16.0284 10.4573 15.857 10.8246C15.7836 11.0694 15.6734 11.4245 15.5265 11.8897C15.3795 12.355 15.2938 12.7223 15.2693 12.9916C15.1224 13.8732 15.049 14.7547 15.049 15.6362C15.1469 16.4443 15.1714 17.338 15.1224 18.3175C15.0979 19.297 15.1102 20.2764 15.1592 21.2559C15.2081 22.2109 15.3551 23.1291 15.5999 24.0106C15.8448 24.8922 16.2978 25.6268 16.9589 26.2145C17.816 27.0715 18.8689 27.6102 20.1177 27.8306C20.8033 27.8306 21.5624 27.8551 22.395 27.904C23.2275 27.9775 24.0356 27.9775 24.8191 27.904C25.6027 27.8551 26.3251 27.7081 26.9862 27.4633C27.6718 27.2184 28.2228 26.8021 28.6391 26.2145C28.8105 26.043 28.9452 25.7737 29.0431 25.4064C29.1655 25.0146 29.2635 24.5616 29.3369 24.0474C29.4104 23.5087 29.4716 22.9332 29.5206 22.3211C29.5696 21.7089 29.6185 21.0845 29.6675 20.4478ZM36.5868 11.1184C36.5868 11.0205 36.5868 10.7144 36.5868 10.2002C36.5868 9.68595 36.5868 9.07378 36.5868 8.36367C36.5868 7.65356 36.5868 6.89447 36.5868 6.08641C36.5868 5.25386 36.5868 4.48253 36.5868 3.77242C36.5868 3.03782 36.5868 2.41341 36.5868 1.89919C36.5868 1.36048 36.5746 1.02991 36.5501 0.907479C36.5501 0.834018 36.4521 0.797288 36.2562 0.797288C36.0603 0.772802 35.84 0.772802 35.5951 0.797288C35.3502 0.821776 35.1054 0.858506 34.8605 0.907479C34.6156 0.931965 34.4442 0.944209 34.3463 0.944209C34.0524 0.968695 33.8076 0.993182 33.6117 1.01767C33.4158 1.01767 33.2321 1.01767 33.0607 1.01767C32.8893 1.01767 32.7057 1.01767 32.5098 1.01767C32.3139 0.993182 32.069 0.968695 31.7752 0.944209C31.7507 2.02162 31.7262 3.29493 31.7017 4.76413C31.7017 6.20884 31.7017 7.7515 31.7017 9.39211C31.7017 11.0327 31.7017 12.7223 31.7017 14.4608C31.7017 16.1749 31.7017 17.84 31.7017 19.4561C31.7262 21.0722 31.7384 22.5904 31.7384 24.0106C31.7629 25.4064 31.7752 26.6062 31.7752 27.6102C32.3629 27.5612 32.8526 27.549 33.2444 27.5735C33.6362 27.5979 33.9912 27.6102 34.3096 27.6102C34.6279 27.6347 34.934 27.6347 35.2278 27.6102C35.5461 27.5857 35.9134 27.5122 36.3297 27.3898V27.2429C36.4276 26.4348 36.4766 25.6268 36.4766 24.8187C36.4766 24.0106 36.4521 23.2026 36.4032 22.3945C36.3787 21.562 36.3542 20.7417 36.3297 19.9336C36.3052 19.1011 36.3175 18.2563 36.3664 17.3992C36.4154 16.7381 36.5868 16.2484 36.8807 15.93C37.1745 15.5872 37.5051 15.3669 37.8724 15.2689C38.2397 15.1465 38.607 15.122 38.9743 15.1954C39.366 15.2444 39.6599 15.3179 39.8558 15.4158C39.8803 15.4403 39.9048 15.4526 39.9292 15.4526C39.9537 15.4526 39.9782 15.4648 40.0027 15.4893C40.1986 15.6362 40.3455 15.8443 40.4435 16.1137C40.5659 16.3831 40.6516 16.6891 40.7006 17.0319C40.774 17.3748 40.823 17.7298 40.8475 18.0971C40.872 18.4399 40.8965 18.7583 40.921 19.0521C40.9699 19.7132 40.9944 20.4234 40.9944 21.1824C41.0189 21.9415 41.0189 22.7006 40.9944 23.4597C40.9944 24.2188 40.9944 24.9534 40.9944 25.6635C40.9944 26.3736 41.0189 27.0103 41.0679 27.5735C41.9249 27.5735 42.684 27.5735 43.3451 27.5735C44.0308 27.5979 44.8021 27.549 45.6591 27.4265C45.6101 26.594 45.5979 25.6268 45.6224 24.5249C45.6469 23.423 45.6714 22.2843 45.6959 21.109C45.7203 19.9091 45.7326 18.7338 45.7326 17.5829C45.7571 16.4075 45.7448 15.3301 45.6959 14.3507C45.6714 13.3712 45.5857 12.5386 45.4387 11.853C45.3163 11.1429 45.1327 10.6777 44.8878 10.4573C44.3736 10.0165 43.7981 9.71044 43.1615 9.53903C42.5248 9.36762 41.8637 9.29416 41.1781 9.31865C40.5169 9.34314 39.868 9.46557 39.2314 9.68595C38.5947 9.90633 38.0193 10.2002 37.5051 10.5675C37.3826 10.6654 37.2235 10.7634 37.0276 10.8613C36.8562 10.9593 36.7092 11.045 36.5868 11.1184ZM63.0413 9.20846C62.2577 9.15949 61.5599 9.12276 60.9477 9.09827C60.36 9.07378 59.858 9.0493 59.4418 9.02481C59.3683 9.02481 59.2336 9.02481 59.0377 9.02481C58.8418 9.02481 58.6459 9.02481 58.4501 9.02481C58.2542 9.00032 58.0705 9.00032 57.8991 9.02481C57.7522 9.02481 57.6787 9.03705 57.6787 9.06154C57.6787 9.35538 57.642 9.64922 57.5685 9.94306C57.5196 10.2124 57.5073 10.543 57.5318 10.9348C57.3604 10.5185 57.1523 10.2002 56.9074 9.97979C56.6625 9.73492 56.3809 9.56352 56.0626 9.46557C55.7443 9.34314 55.3892 9.28192 54.9974 9.28192C54.6301 9.25743 54.2261 9.24519 53.7853 9.24519C52.9283 9.26968 52.1203 9.5023 51.3612 9.94306C50.6021 10.3593 49.9409 10.947 49.3777 11.7061C48.839 12.4407 48.4105 13.3222 48.0922 14.3507C47.7739 15.3791 47.6147 16.5055 47.6147 17.7298C47.6147 18.7093 47.7127 19.7745 47.9085 20.9253C48.1289 22.0762 48.4595 23.1414 48.9003 24.1208C49.341 25.1003 49.892 25.9206 50.5531 26.5817C51.2387 27.2429 52.059 27.5735 53.014 27.5735C53.871 27.5735 54.7403 27.3653 55.6218 26.949C56.5279 26.5328 57.2747 26.0308 57.8624 25.4431C57.8624 25.688 57.8379 25.8961 57.7889 26.0675C57.7399 26.2389 57.7155 26.4593 57.7155 26.7287C57.7155 26.9246 57.7399 27.096 57.7889 27.2429C57.8624 27.3898 57.9848 27.4878 58.1562 27.5367C58.4256 27.5367 58.6827 27.5245 58.9275 27.5C59.1969 27.451 59.4663 27.4265 59.7356 27.4265C60.1274 27.4265 60.5192 27.451 60.911 27.5C61.3272 27.5245 61.7313 27.5367 62.1231 27.5367H62.5638C62.8577 27.4878 63.0046 27.3041 63.0046 26.9858C63.0291 26.6675 63.0413 26.3491 63.0413 26.0308C63.2127 23.4107 63.2494 20.8274 63.1515 18.2808C63.0535 15.7097 63.0413 13.1018 63.1148 10.4573V10.09C63.1148 9.94306 63.1025 9.79614 63.078 9.64922C63.078 9.5023 63.0658 9.35538 63.0413 9.20846ZM52.3529 16.5177C52.4753 15.9056 52.8181 15.3669 53.3813 14.9016C53.969 14.4119 54.7648 14.167 55.7688 14.167C56.283 14.167 56.6625 14.2037 56.9074 14.2772C57.1767 14.3507 57.3604 14.5221 57.4583 14.7914C57.5808 15.0608 57.642 15.4526 57.642 15.9668C57.6665 16.4565 57.6787 17.1299 57.6787 17.9869C57.6787 18.6726 57.6665 19.297 57.642 19.8602C57.642 20.3989 57.5685 20.8641 57.4216 21.2559C57.2992 21.6232 57.0788 21.917 56.7605 22.1374C56.4666 22.3333 56.0136 22.4313 55.4015 22.4313C54.373 22.4313 53.565 22.0517 52.9773 21.2926C52.4141 20.5091 52.1325 19.5663 52.1325 18.4644C52.1325 18.1461 52.1447 17.8278 52.1692 17.5094C52.1937 17.1666 52.2549 16.8361 52.3529 16.5177ZM74.7062 25.5166C74.7307 25.8594 74.7307 26.1655 74.7062 26.4348C74.7062 26.7042 74.7307 27.047 74.7797 27.4633C74.7797 27.5367 74.8776 27.5735 75.0735 27.5735C75.2694 27.5979 75.4898 27.5979 75.7347 27.5735C75.9795 27.549 76.2244 27.5245 76.4693 27.5C76.7141 27.451 76.8856 27.4265 76.9835 27.4265C77.2773 27.4021 77.5222 27.3898 77.7181 27.3898C77.914 27.3653 78.0976 27.3531 78.269 27.3531C78.4405 27.3531 78.6241 27.3653 78.82 27.3898C79.0159 27.3898 79.2608 27.4021 79.5546 27.4265C79.6525 24.1943 79.6648 21.0723 79.5913 18.0604C79.5424 15.0485 79.5179 12.0367 79.5179 9.02481C78.9302 9.07378 78.4405 9.08603 78.0487 9.06154C77.6569 9.03705 77.3018 9.02481 76.9835 9.02481C76.6652 9.00032 76.3468 9.00032 76.0285 9.02481C75.7347 9.0493 75.3796 9.12276 74.9633 9.24519V9.39211C74.8409 10.2002 74.7797 11.0082 74.7797 11.8163C74.8042 12.6243 74.8287 13.4447 74.8532 14.2772C74.9021 15.0853 74.9389 15.9056 74.9633 16.7381C74.9878 17.5707 74.9756 18.4032 74.9266 19.2357C74.8776 19.8969 74.7062 20.3989 74.4124 20.7417C74.1186 21.06 73.788 21.2804 73.4207 21.4028C73.0534 21.5008 72.6738 21.5253 72.2821 21.4763C71.9148 21.4028 71.6332 21.3171 71.4373 21.2192C71.4128 21.1947 71.3883 21.1824 71.3638 21.1824C71.3393 21.1824 71.3148 21.1702 71.2903 21.1457C71.0945 20.9988 70.9353 20.7907 70.8129 20.5213C70.7149 20.2519 70.6292 19.9459 70.5557 19.603C70.5068 19.2602 70.47 18.9174 70.4456 18.5746C70.4211 18.2073 70.3966 17.8767 70.3721 17.5829C70.3231 16.9218 70.2864 16.2116 70.2619 15.4526C70.2619 14.6935 70.2619 13.9344 70.2619 13.1753C70.2864 12.4162 70.2986 11.6816 70.2986 10.9715C70.2986 10.2614 70.2742 9.62473 70.2252 9.06154C69.3681 9.06154 68.5968 9.06154 67.9112 9.06154C67.25 9.03705 66.491 9.08603 65.6339 9.20846C65.6829 10.041 65.6951 11.0082 65.6707 12.1101C65.6462 13.212 65.6217 14.3629 65.5972 15.5627C65.5727 16.7381 65.5482 17.9135 65.5237 19.0888C65.5237 20.2397 65.536 21.3049 65.5605 22.2843C65.6094 23.2638 65.6951 24.1086 65.8176 24.8187C65.9645 25.5043 66.1604 25.9573 66.4053 26.1777C66.9195 26.6185 67.4949 26.9246 68.1316 27.096C68.7682 27.2674 69.4171 27.3408 70.0783 27.3163C70.7639 27.2919 71.425 27.1694 72.0617 26.949C72.6983 26.7287 73.2738 26.4348 73.788 26.0675C73.9104 25.9696 74.0573 25.8716 74.2287 25.7737C74.4246 25.6757 74.5838 25.59 74.7062 25.5166Z" fill="#F54B2A"/>
<path d="M87.0551 34.5526C87.0796 34.0629 87.0918 33.6833 87.0918 33.4139C87.1163 33.1691 87.1286 32.9364 87.1286 32.716C87.1531 32.5201 87.1653 32.2997 87.1653 32.0548C87.1898 31.8344 87.202 31.5038 87.202 31.0631C87.202 30.6468 87.202 30.0835 87.202 29.3734C87.202 28.6632 87.1898 27.7326 87.1653 26.5817C87.2143 26.8021 87.4837 26.998 87.9734 27.1694C88.4632 27.3408 89.0632 27.451 89.7733 27.5C90.4835 27.5735 91.2304 27.5735 92.014 27.5C92.8221 27.451 93.5568 27.3041 94.218 27.0592C94.7567 26.8633 95.2097 26.5327 95.5771 26.0674C95.9689 25.5777 96.275 25.0022 96.4954 24.341C96.7403 23.6553 96.9117 22.9084 97.0096 22.1003C97.1321 21.2922 97.1933 20.4596 97.1933 19.6025C97.1443 18.3781 97.0586 17.1659 96.9362 15.966C96.8137 14.7661 96.5443 13.6886 96.128 12.7335C95.7362 11.754 95.1363 10.9581 94.3281 10.3459C93.52 9.70921 92.4181 9.34189 91.0222 9.24393C90.3365 9.14598 89.6876 9.2072 89.0754 9.4276C88.4632 9.6235 87.9734 10.0888 87.6061 10.8234C87.5326 10.9704 87.4592 11.0193 87.3857 10.9704C87.3367 10.8969 87.2877 10.7989 87.2388 10.6765C87.2388 10.4071 87.2265 10.199 87.202 10.052C87.202 9.90512 87.202 9.70921 87.202 9.46433C87.202 9.34189 87.1898 9.25618 87.1653 9.2072C86.4307 9.10925 85.6103 9.08476 84.7042 9.13374C83.7982 9.15822 82.9656 9.17047 82.2064 9.17047C82.1574 10.9336 82.1329 12.7703 82.1329 14.6803C82.1574 16.566 82.1819 18.5005 82.2064 20.4841C82.2554 22.4432 82.3044 24.439 82.3533 26.4715C82.4023 28.504 82.4268 30.5366 82.4268 32.5691V34.9934C82.8186 35.0669 83.2839 35.1036 83.8226 35.1036C84.3614 35.1281 84.8634 35.1281 85.3287 35.1036C85.8184 35.1036 86.2225 35.0791 86.5409 35.0302C86.8837 35.0057 87.0551 34.9812 87.0551 34.9567V34.5526ZM92.7487 20.7045C92.6262 21.5616 92.2589 22.2105 91.6467 22.6513C91.059 23.0921 90.2631 23.3125 89.2591 23.3125C88.7448 23.3125 88.3285 23.2758 88.0102 23.2023C87.7163 23.1043 87.4959 22.9084 87.349 22.6146C87.202 22.3207 87.1041 21.9044 87.0551 21.3657C87.0306 20.8024 87.0184 20.0433 87.0184 19.0883C87.0184 18.3291 87.0306 17.6189 87.0551 16.9578C87.1041 16.2966 87.2143 15.7333 87.3857 15.2681C87.5816 14.8028 87.851 14.4355 88.1938 14.1661C88.5367 13.8967 89.0264 13.762 89.6631 13.762C90.1774 13.762 90.6427 13.8967 91.059 14.1661C91.4753 14.4355 91.8303 14.8028 92.1242 15.2681C92.4181 15.7089 92.6385 16.2231 92.7854 16.8108C92.9323 17.3741 93.0058 17.9618 93.0058 18.574C93.0058 18.9168 92.9935 19.2719 92.969 19.6392C92.9446 20.0066 92.8711 20.3616 92.7487 20.7045ZM104.315 10.4194C104.315 10.248 104.302 10.1255 104.278 10.052C104.278 9.97858 104.278 9.91736 104.278 9.86839C104.278 9.79492 104.278 9.70921 104.278 9.61126C104.278 9.5133 104.278 9.36637 104.278 9.17047C104.278 9.12149 104.168 9.097 103.947 9.097C103.751 9.07251 103.506 9.07251 103.213 9.097C102.943 9.12149 102.674 9.14598 102.404 9.17047C102.16 9.19496 101.988 9.2072 101.89 9.2072C101.596 9.23169 101.351 9.25618 101.156 9.28066C100.96 9.28066 100.776 9.28066 100.605 9.28066C100.433 9.28066 100.249 9.28066 100.054 9.28066C99.8576 9.25618 99.6128 9.23169 99.3189 9.2072C99.2209 12.4397 99.1965 15.5619 99.2454 18.574C99.3189 21.5861 99.3556 24.5981 99.3556 27.6102C99.9433 27.5612 100.445 27.549 100.862 27.5735C101.302 27.598 101.707 27.6102 102.074 27.6102C102.441 27.6347 102.796 27.6347 103.139 27.6102C103.482 27.5857 103.861 27.5122 104.278 27.3898V27.2429C104.278 26.3368 104.266 25.492 104.241 24.7083C104.241 23.9002 104.241 23.1166 104.241 22.3574C104.241 21.5738 104.229 20.8024 104.204 20.0433C104.18 19.2842 104.155 18.476 104.131 17.6189C104.106 16.9333 104.204 16.4068 104.425 16.0395C104.645 15.6721 104.951 15.4028 105.343 15.2313C105.759 15.0599 106.237 14.9742 106.776 14.9742C107.339 14.9742 107.951 15.0109 108.612 15.0844C108.637 15.0844 108.796 15.1089 109.09 15.1579C109.408 15.2068 109.714 15.2681 110.008 15.3415C110.131 15.3905 110.253 15.4395 110.375 15.4885C110.522 15.513 110.657 15.5497 110.779 15.5987L111.11 15.7089C111.086 15.3415 111.073 14.9497 111.073 14.5334C111.073 14.1171 111.073 13.6641 111.073 13.1743C111.073 12.6601 111.073 12.0846 111.073 11.4479C111.098 10.8112 111.11 10.0765 111.11 9.24393C111.11 9.21944 110.926 9.2072 110.559 9.2072C110.216 9.18271 109.788 9.18271 109.273 9.2072C108.759 9.23169 108.208 9.29291 107.62 9.39086C107.033 9.46433 106.506 9.57453 106.041 9.72146C105.698 9.8439 105.343 9.97858 104.976 10.1255C104.633 10.2724 104.412 10.3704 104.315 10.4194ZM113.136 10.75C113.063 11.0193 112.953 11.3867 112.806 11.8519C112.659 12.2927 112.573 12.6478 112.549 12.9172C112.475 13.3825 112.426 13.8355 112.402 14.2763C112.377 14.6926 112.365 15.1211 112.365 15.5619C112.438 16.37 112.451 17.2639 112.402 18.2434C112.377 19.2229 112.389 20.2025 112.438 21.182C112.487 22.1371 112.634 23.0554 112.879 23.9369C113.124 24.8185 113.577 25.5532 114.238 26.1409C115.095 26.998 116.148 27.5367 117.397 27.7571C118.083 27.7571 118.842 27.7816 119.675 27.8306C120.507 27.9041 121.315 27.9041 122.099 27.8306C122.883 27.7816 123.605 27.6347 124.266 27.3898C124.952 27.1449 125.503 26.7286 125.919 26.1409C126.164 25.896 126.348 25.443 126.47 24.7818C126.617 24.1206 126.727 23.3737 126.801 22.5411C126.899 21.7085 126.96 20.8392 126.985 19.9331C127.033 19.027 127.07 18.2189 127.095 17.5088C127.07 16.7006 127.046 15.917 127.021 15.1579C126.997 14.3742 126.936 13.6641 126.838 13.0274C126.74 12.3662 126.593 11.7907 126.397 11.301C126.201 10.8112 125.932 10.4561 125.589 10.2357C125.074 9.74594 124.462 9.37862 123.752 9.13374C123.042 8.86436 122.295 8.70519 121.511 8.65621C120.997 8.60723 120.507 8.60723 120.042 8.65621C119.601 8.6807 119.136 8.66846 118.646 8.61948C118.059 8.61948 117.471 8.65621 116.883 8.72968C116.32 8.80314 115.781 8.93783 115.267 9.13374C114.777 9.30515 114.336 9.52555 113.944 9.79492C113.577 10.0643 113.308 10.3826 113.136 10.75ZM117.728 15.0844C118.046 14.6926 118.463 14.4232 118.977 14.2763C119.932 14.0559 120.703 14.1416 121.291 14.5334C121.879 14.9252 122.234 15.5497 122.356 16.4068C122.503 17.1169 122.54 17.8761 122.466 18.6842C122.417 19.4678 122.344 20.2514 122.246 21.0351C122.099 21.6473 121.817 22.0513 121.401 22.2472C121.083 22.4187 120.679 22.5411 120.189 22.6146C119.699 22.6636 119.222 22.6391 118.756 22.5411C118.316 22.4187 117.936 22.2105 117.618 21.9167C117.299 21.5983 117.152 21.1575 117.177 20.5943C117.226 19.7372 117.25 18.9291 117.25 18.1699C117.25 17.3863 117.299 16.6027 117.397 15.8191C117.471 15.4272 117.581 15.1824 117.728 15.0844ZM134.083 1.67703C134.083 1.65254 133.911 1.62805 133.569 1.60357C133.25 1.55459 132.846 1.5301 132.356 1.5301C131.891 1.50561 131.389 1.50561 130.85 1.5301C130.312 1.5301 129.846 1.56683 129.454 1.6403V4.06465C129.454 6.09718 129.43 8.12971 129.381 10.1622C129.332 12.1948 129.283 14.2028 129.234 16.1864C129.21 18.1454 129.185 20.08 129.161 21.9901C129.161 23.8757 129.185 25.7001 129.234 27.4633C129.993 27.4633 130.826 27.4755 131.732 27.5C132.638 27.549 133.458 27.5245 134.193 27.4265C134.217 27.3776 134.23 27.2918 134.23 27.1694C134.23 26.9245 134.23 26.7286 134.23 26.5817C134.254 26.4348 134.266 26.2266 134.266 25.9572C134.315 25.8348 134.364 25.7491 134.413 25.7001C134.487 25.6266 134.56 25.6634 134.634 25.8103C135.001 26.545 135.491 27.0225 136.103 27.2429C136.715 27.4388 137.364 27.4878 138.05 27.3898C139.446 27.2918 140.548 26.9368 141.356 26.3246C142.164 25.6879 142.764 24.892 143.156 23.9369C143.572 22.9574 143.841 21.8677 143.964 20.6677C144.086 19.4678 144.172 18.2556 144.221 17.0312C144.221 16.1741 144.16 15.3415 144.037 14.5334C143.939 13.7253 143.768 12.9907 143.523 12.3295C143.303 11.6438 142.997 11.0683 142.605 10.603C142.237 10.1133 141.784 9.77043 141.246 9.57452C140.584 9.32964 139.85 9.18271 139.042 9.13374C138.258 9.06027 137.511 9.06027 136.801 9.13374C136.091 9.18271 135.491 9.29291 135.001 9.46433C134.511 9.63575 134.242 9.83165 134.193 10.052C134.217 8.9011 134.23 7.97054 134.23 7.26038C134.23 6.55021 134.23 5.98698 134.23 5.57068C134.23 5.12989 134.217 4.7993 134.193 4.5789C134.193 4.33402 134.181 4.11362 134.156 3.91772C134.156 3.69732 134.144 3.46468 134.12 3.2198C134.12 2.95043 134.107 2.57086 134.083 2.08109V1.67703ZM139.776 15.9293C139.899 16.2721 139.972 16.6272 139.997 16.9945C140.021 17.3618 140.033 17.7169 140.033 18.0597C140.033 18.6719 139.96 19.2719 139.813 19.8596C139.666 20.4229 139.446 20.9371 139.152 21.4024C138.858 21.8432 138.503 22.1983 138.087 22.4676C137.67 22.737 137.205 22.8717 136.691 22.8717C136.054 22.8717 135.564 22.737 135.222 22.4676C134.879 22.1983 134.609 21.8309 134.413 21.3657C134.242 20.9004 134.132 20.3494 134.083 19.7127C134.058 19.0515 134.046 18.3291 134.046 17.5455C134.046 16.5904 134.058 15.8435 134.083 15.3048C134.132 14.7416 134.23 14.313 134.377 14.0192C134.524 13.7253 134.744 13.5416 135.038 13.4682C135.356 13.3702 135.772 13.3212 136.287 13.3212C137.291 13.3212 138.087 13.5416 138.674 13.9824C139.287 14.4232 139.654 15.0722 139.776 15.9293ZM146.42 0.79545C146.2 3.02389 146.089 5.25233 146.089 7.48077C146.114 9.70921 146.163 11.9377 146.236 14.1661C146.31 16.3945 146.359 18.623 146.383 20.8514C146.432 23.0799 146.371 25.296 146.2 27.5C146.371 27.451 146.714 27.4388 147.228 27.4633C147.742 27.4878 148.281 27.5 148.844 27.5C149.432 27.5245 149.971 27.5245 150.461 27.5C150.95 27.5 151.256 27.4265 151.379 27.2796C151.33 26.3001 151.293 25.1124 151.269 23.7165C151.244 22.2962 151.232 20.7779 151.232 19.1617C151.232 17.5455 151.232 15.868 151.232 14.1294C151.256 12.3907 151.281 10.7132 151.305 9.097C151.33 7.48077 151.354 5.96249 151.379 4.54217C151.403 3.12184 151.416 1.90967 151.416 0.905648L146.42 0.79545ZM158.287 18.2801C158.532 18.3291 158.923 18.3658 159.462 18.3903C160.001 18.4148 160.601 18.4271 161.262 18.4271C161.948 18.4271 162.658 18.4148 163.392 18.3903C164.127 18.3658 164.813 18.3291 165.449 18.2801C166.111 18.2312 166.674 18.1822 167.139 18.1332C167.629 18.0842 167.96 18.0353 168.131 17.9863C168.204 16.9578 168.204 15.9415 168.131 14.9375C168.058 13.9335 167.837 13.0151 167.47 12.1825C167.127 11.3499 166.613 10.6398 165.927 10.052C165.241 9.46433 164.335 9.07251 163.209 8.87661C162.327 8.65621 161.421 8.55826 160.491 8.58275C159.56 8.60724 158.678 8.75417 157.846 9.02354C157.013 9.26842 156.266 9.64799 155.605 10.1622C154.944 10.652 154.454 11.252 154.136 11.9621C153.842 12.7703 153.646 13.6029 153.548 14.46C153.475 15.2926 153.401 16.1619 153.328 17.068C153.279 18.072 153.303 19.076 153.401 20.08C153.499 21.0841 153.683 22.0391 153.952 22.9452C154.222 23.8267 154.577 24.6471 155.017 25.4062C155.458 26.1409 156.009 26.7409 156.67 27.2061C157.258 27.549 157.895 27.7694 158.581 27.8673C159.266 27.8673 160.013 27.8918 160.821 27.9408C161.654 27.9898 162.462 27.9898 163.246 27.9408C164.029 27.8918 164.752 27.7449 165.413 27.5C166.074 27.2551 166.613 26.8388 167.029 26.2511C167.2 26.1042 167.335 25.847 167.433 25.4797C167.555 25.0879 167.653 24.6349 167.727 24.1206C167.8 23.5819 167.862 23.0064 167.911 22.3942C167.96 21.782 168.009 21.1575 168.058 20.5208C167.788 20.4474 167.445 20.4106 167.029 20.4106C166.613 20.3861 166.172 20.3861 165.707 20.4106C165.266 20.4351 164.837 20.4596 164.421 20.4841C164.005 20.4841 163.674 20.4718 163.429 20.4474C163.478 21.4514 163.319 22.2105 162.952 22.7248C162.609 23.2145 162.18 23.5084 161.666 23.6064C161.152 23.7043 160.625 23.6186 160.087 23.3492C159.548 23.0799 159.132 22.6636 158.838 22.1003C158.568 21.6595 158.409 21.2065 158.36 20.7412C158.336 20.2759 158.311 19.676 158.287 18.9413V18.2801ZM162.731 12.5866C163.172 12.807 163.515 13.1376 163.76 13.5784C164.029 14.0192 164.164 14.4844 164.164 14.9742C164.164 15.1701 164.164 15.3048 164.164 15.3783C164.164 15.4272 164.09 15.464 163.943 15.4885C163.821 15.4885 163.601 15.4762 163.282 15.4517C162.964 15.4272 162.486 15.415 161.85 15.415C160.919 15.415 160.209 15.4272 159.719 15.4517C159.254 15.4517 158.911 15.4395 158.691 15.415C158.47 15.366 158.348 15.2926 158.323 15.1946C158.323 15.0722 158.348 14.8763 158.397 14.6069C158.446 14.2885 158.519 13.9824 158.617 13.6886C158.74 13.3947 158.911 13.1376 159.132 12.9172C159.352 12.6968 159.646 12.5254 160.013 12.4029C160.38 12.2805 160.858 12.2193 161.446 12.2193C161.715 12.2193 161.948 12.256 162.144 12.3295C162.339 12.3784 162.535 12.4642 162.731 12.5866ZM175.049 11.1173C175.025 10.7745 175.012 10.4684 175.012 10.199C175.037 9.92961 175.025 9.58677 174.976 9.17047C174.976 9.097 174.878 9.06027 174.682 9.06027C174.486 9.03578 174.265 9.03578 174.021 9.06027C173.776 9.08476 173.531 9.12149 173.286 9.17047C173.041 9.19496 172.87 9.2072 172.772 9.2072C172.478 9.23169 172.233 9.25618 172.037 9.28066C171.841 9.28066 171.657 9.28066 171.486 9.28066C171.315 9.28066 171.131 9.28066 170.935 9.28066C170.739 9.25618 170.494 9.23169 170.2 9.2072C170.102 12.4397 170.078 15.5619 170.127 18.574C170.2 21.5861 170.237 24.5981 170.237 27.6102C170.825 27.5612 171.315 27.549 171.706 27.5735C172.098 27.598 172.453 27.6102 172.772 27.6102C173.09 27.6347 173.396 27.6347 173.69 27.6102C174.008 27.5857 174.376 27.5122 174.792 27.3898V27.2429C174.89 26.4348 174.939 25.6266 174.939 24.8185C174.939 24.0104 174.914 23.2023 174.865 22.3942C174.841 21.5616 174.816 20.7412 174.792 19.9331C174.767 19.1005 174.78 18.2556 174.829 17.3986C174.878 16.7374 175.049 16.2476 175.343 15.9293C175.637 15.5864 175.967 15.366 176.335 15.2681C176.702 15.1456 177.069 15.1211 177.437 15.1946C177.828 15.2436 178.122 15.317 178.318 15.415C178.343 15.4395 178.367 15.4517 178.392 15.4517C178.416 15.4517 178.441 15.464 178.465 15.4885C178.661 15.6354 178.808 15.8435 178.906 16.1129C179.028 16.3823 179.114 16.6884 179.163 17.0312C179.237 17.3741 179.286 17.7291 179.31 18.0965C179.334 18.4393 179.359 18.7577 179.383 19.0515C179.432 19.7127 179.457 20.4229 179.457 21.182C179.481 21.9411 179.481 22.7003 179.457 23.4594C179.457 24.2186 179.457 24.9532 179.457 25.6634C179.457 26.3735 179.481 27.0102 179.53 27.5735C180.387 27.5735 181.147 27.5735 181.808 27.5735C182.493 27.598 183.265 27.549 184.122 27.4265C184.073 26.6919 184.048 25.847 184.048 24.892C184.073 23.9125 184.097 22.9084 184.122 21.8799C184.146 20.8269 184.171 19.7739 184.195 18.7209C184.22 17.6434 184.22 16.6272 184.195 15.6721C184.416 15.5007 184.648 15.3783 184.893 15.3048C185.163 15.2068 185.42 15.1579 185.665 15.1579C185.934 15.1579 186.179 15.1824 186.399 15.2313C186.62 15.2803 186.803 15.3415 186.95 15.415C186.975 15.4395 186.999 15.4517 187.024 15.4517C187.048 15.4517 187.073 15.464 187.097 15.4885C187.293 15.6354 187.44 15.8435 187.538 16.1129C187.661 16.3823 187.746 16.6884 187.795 17.0312C187.869 17.3741 187.918 17.7291 187.942 18.0965C187.967 18.4393 187.991 18.7577 188.016 19.0515C188.065 19.7127 188.089 20.4229 188.089 21.182C188.114 21.9411 188.114 22.7003 188.089 23.4594C188.089 24.2186 188.089 24.9532 188.089 25.6634C188.089 26.3735 188.114 27.0102 188.163 27.5735C189.02 27.5735 189.779 27.5735 190.44 27.5735C191.126 27.598 191.897 27.549 192.754 27.4265C192.705 26.5939 192.693 25.6266 192.717 24.5247C192.742 23.4227 192.766 22.284 192.791 21.1085C192.815 19.9086 192.828 18.7332 192.828 17.5822C192.852 16.4068 192.84 15.3293 192.791 14.3498C192.766 13.3702 192.681 12.5376 192.534 11.8519C192.411 11.1418 192.228 10.6765 191.983 10.4561C191.468 10.0153 190.893 9.70921 190.256 9.53779C189.62 9.36637 188.958 9.29291 188.273 9.3174C187.612 9.34189 186.963 9.46433 186.326 9.68472C185.689 9.90512 185.114 10.199 184.599 10.5663C184.477 10.6643 184.33 10.7622 184.159 10.8602C183.987 10.9336 183.84 11.0071 183.718 11.0806C183.595 10.7867 183.473 10.5785 183.351 10.4561C182.836 10.0153 182.261 9.70921 181.624 9.53779C180.987 9.36637 180.326 9.29291 179.641 9.3174C178.979 9.34189 178.33 9.46433 177.694 9.68472C177.057 9.90512 176.482 10.199 175.967 10.5663C175.845 10.6643 175.686 10.7622 175.49 10.8602C175.318 10.9581 175.171 11.0438 175.049 11.1173ZM210.114 9.2072C209.33 9.15822 208.632 9.12149 208.02 9.097C207.432 9.07251 206.93 9.04803 206.514 9.02354C206.44 9.02354 206.306 9.02354 206.11 9.02354C205.914 9.02354 205.718 9.02354 205.522 9.02354C205.326 8.99905 205.143 8.99905 204.971 9.02354C204.824 9.02354 204.751 9.03578 204.751 9.06027C204.751 9.35413 204.714 9.64799 204.641 9.94185C204.592 10.2112 204.579 10.5418 204.604 10.9336C204.432 10.5173 204.224 10.199 203.979 9.97858C203.734 9.7337 203.453 9.56228 203.134 9.46433C202.816 9.34189 202.461 9.28066 202.069 9.28066C201.702 9.25618 201.298 9.24393 200.857 9.24393C200 9.26842 199.192 9.50106 198.433 9.94185C197.674 10.3582 197.012 10.9459 196.449 11.705C195.91 12.4397 195.482 13.3212 195.164 14.3498C194.845 15.3783 194.686 16.5047 194.686 17.7291C194.686 18.7087 194.784 19.7739 194.98 20.9249C195.2 22.0758 195.531 23.1411 195.972 24.1206C196.412 25.1001 196.963 25.9205 197.625 26.5817C198.31 27.2429 199.131 27.5735 200.086 27.5735C200.943 27.5735 201.812 27.3653 202.694 26.949C203.6 26.5327 204.347 26.0307 204.934 25.443C204.934 25.6879 204.91 25.896 204.861 26.0674C204.812 26.2388 204.787 26.4592 204.787 26.7286C204.787 26.9245 204.812 27.0959 204.861 27.2429C204.934 27.3898 205.057 27.4878 205.228 27.5367C205.498 27.5367 205.755 27.5245 206 27.5C206.269 27.451 206.538 27.4265 206.808 27.4265C207.2 27.4265 207.591 27.451 207.983 27.5C208.399 27.5245 208.804 27.5367 209.195 27.5367H209.636C209.93 27.4878 210.077 27.3041 210.077 26.9857C210.101 26.6674 210.114 26.349 210.114 26.0307C210.285 23.4104 210.322 20.8269 210.224 18.2801C210.126 15.7089 210.114 13.1008 210.187 10.4561V10.0888C210.187 9.94185 210.175 9.79492 210.15 9.64799C210.15 9.50106 210.138 9.35413 210.114 9.2072ZM199.425 16.517C199.547 15.9048 199.89 15.366 200.453 14.9007C201.041 14.411 201.837 14.1661 202.841 14.1661C203.355 14.1661 203.734 14.2028 203.979 14.2763C204.249 14.3498 204.432 14.5212 204.53 14.7905C204.653 15.0599 204.714 15.4517 204.714 15.966C204.738 16.4558 204.751 17.1292 204.751 17.9863C204.751 18.6719 204.738 19.2964 204.714 19.8596C204.714 20.3984 204.641 20.8637 204.494 21.2555C204.371 21.6228 204.151 21.9167 203.832 22.1371C203.539 22.333 203.086 22.4309 202.473 22.4309C201.445 22.4309 200.637 22.0513 200.049 21.2922C199.486 20.5086 199.204 19.5658 199.204 18.4638C199.204 18.1454 199.216 17.8271 199.241 17.5088C199.265 17.1659 199.327 16.8353 199.425 16.517Z" fill="#F7B12E"/>
</svg>
